<svg id="Layer_1" data-name="Layer 1" xmlns="http://www.w3.org/2000/svg" viewBox="0 0 196.89 150.41"><circle cx="98.44" cy="75.21" r="75.21" style="fill:#ff7062"/><polygon points="196.89 41.27 0 41.27 16.79 74.84 0 109.14 196.89 109.14 180.1 74.84 196.89 41.27" style="fill:#424b54"/><text transform="translate(34.73 92.15)" style="font-size:10px;fill:#fff;font-family:SweetSansPro-Bold, Sweet Sans Pro;font-weight:700;letter-spacing:0.147607421875em">A<tspan x="9.01" y="0" style="letter-spacing:0.142822265625em">FFI</tspan><tspan x="30.04" y="0" style="letter-spacing:0.14384765625em">N</tspan><tspan x="39.55" y="0" style="letter-spacing:0.139013671875em">I</tspan><tspan x="44.43" y="0" style="letter-spacing:0.188671875em">T</tspan><tspan x="52.99" y="0" style="letter-spacing:0.15em">Y </tspan><tspan x="64.94" y="0" style="letter-spacing:0.103173828125em">P</tspan><tspan x="73.42" y="0" style="letter-spacing:0.14755859375em">A</tspan><tspan x="82.42" y="0" style="letter-spacing:0.15302734375em">R</tspan><tspan x="91.75" y="0" style="letter-spacing:0.1404296875em">T</tspan><tspan x="99.84" y="0" style="letter-spacing:0.14375em">N</tspan><tspan x="109.34" y="0" style="letter-spacing:0.15234375em">E</tspan><tspan x="117.98" y="0" style="letter-spacing:0.15em">R</tspan></text><path d="M136.44,75.32c-.26-.16-1.35.05-1.67.06a2.4,2.4,0,0,1-.46,0c-.39,0-1.17,0-2.36,0a12.76,12.76,0,0,0-2.5.32L131.23,77h0l.27.2a.8.8,0,0,1,.34.68c0,.29,0,.68.06,1l0,.61s0,.09,0,.13c0,.26,0,.61,0,1.2a2.8,2.8,0,0,0,.46-.55l2-2.46.51-.59c.08-.09.19-.2.31-.31l.6-.62a3.56,3.56,0,0,0,.68-.94h0Z" transform="translate(-1.59 -24.53)" style="fill:#ff7062"/><path d="M41.47,80.43a1.06,1.06,0,0,1,.21.74,1,1,0,0,1-.21.73.87.87,0,0,1-.68.22H37.4V95h6.94V90.35a.91.91,0,0,1,.24-.71,1.24,1.24,0,0,1,.82-.21,1.23,1.23,0,0,1,.81.21.91.91,0,0,1,.24.71v5.57a1,1,0,0,1-.21.73.87.87,0,0,1-.68.22H33a.87.87,0,0,1-.68-.22,1,1,0,0,1-.21-.73,1.06,1.06,0,0,1,.21-.74A.91.91,0,0,1,33,95h2.27V82.12H33a.87.87,0,0,1-.68-.22,1,1,0,0,1-.21-.73,1.06,1.06,0,0,1,.21-.74.91.91,0,0,1,.68-.22h7.77A.91.91,0,0,1,41.47,80.43Z" transform="translate(-1.59 -24.53)" style="fill:#fff"/><path d="M59.57,84.77a4.47,4.47,0,0,1,1.32,3.5v5.58q0,1.11.93,1.11h.49a.91.91,0,0,1,.68.22,1.06,1.06,0,0,1,.21.74,1,1,0,0,1-.21.73.87.87,0,0,1-.68.22h-.9a2.66,2.66,0,0,1-1.56-.45A2.14,2.14,0,0,1,59,95.08a8.84,8.84,0,0,1-2.49,1.55,7.37,7.37,0,0,1-2.84.55,6.18,6.18,0,0,1-2.51-.48,4,4,0,0,1-1.7-1.41,3.92,3.92,0,0,1-.62-2.21,3.64,3.64,0,0,1,1.59-3.27,7.18,7.18,0,0,1,4.09-1.06,12.71,12.71,0,0,1,4.27.71V88.27a2.45,2.45,0,0,0-.77-2,3.8,3.8,0,0,0-2.46-.64,9,9,0,0,0-2.19.29,10.58,10.58,0,0,0-2.16.82,1,1,0,0,1-.43.13c-.31,0-.57-.23-.78-.68a1.42,1.42,0,0,1-.15-.56.82.82,0,0,1,.52-.76,11.08,11.08,0,0,1,2.53-.94,11.44,11.44,0,0,1,2.72-.33A5.77,5.77,0,0,1,59.57,84.77ZM52,91.28a2.13,2.13,0,0,0-.22,3.35,3.07,3.07,0,0,0,2,.57,6.89,6.89,0,0,0,5-2.31V91.36a11.6,11.6,0,0,0-2-.47,14.72,14.72,0,0,0-2.2-.17A5,5,0,0,0,52,91.28Z" transform="translate(-1.59 -24.53)" style="fill:#fff"/><path d="M80.37,84.12a1.11,1.11,0,0,1,.2.74,1.13,1.13,0,0,1-.2.74.92.92,0,0,1-.68.21h-.34L76.59,96.27a1.07,1.07,0,0,1-1.23.91,1.7,1.7,0,0,1-.94-.22,1.24,1.24,0,0,1-.51-.69l-2.15-6.09-2.18,6.09a1.21,1.21,0,0,1-.52.69,1.8,1.8,0,0,1-1,.22,1.32,1.32,0,0,1-.8-.2,1.31,1.31,0,0,1-.4-.71L64.19,85.81h-.25a.92.92,0,0,1-.68-.21,1.13,1.13,0,0,1-.2-.74,1.11,1.11,0,0,1,.2-.74.92.92,0,0,1,.68-.22h4.13a.92.92,0,0,1,.68.22,1.11,1.11,0,0,1,.2.74,1.13,1.13,0,0,1-.2.74.92.92,0,0,1-.68.21H66.34l2,8.17,2.35-6.51a.86.86,0,0,1,.36-.48,1.23,1.23,0,0,1,.7-.18c.59,0,1,.19,1.08.56L75.18,94l2.08-8.17H75.84a.92.92,0,0,1-.68-.21,1.13,1.13,0,0,1-.2-.74,1.11,1.11,0,0,1,.2-.74.92.92,0,0,1,.68-.22h3.85A.92.92,0,0,1,80.37,84.12Z" transform="translate(-1.59 -24.53)" style="fill:#fff"/><path d="M97.38,84.12a1.06,1.06,0,0,1,.2.74,1.07,1.07,0,0,1-.2.74.92.92,0,0,1-.68.21h-.87L90.09,97.57a15.71,15.71,0,0,1-1.78,2.94,5.5,5.5,0,0,1-2,1.56,6.88,6.88,0,0,1-2.65.55,1,1,0,0,1-.75-.24,1.25,1.25,0,0,1-.27-.92c0-.61.25-.93.74-.95a5.84,5.84,0,0,0,2.14-.45A4,4,0,0,0,87,98.76a21.08,21.08,0,0,0,1.64-2.87L83.52,85.81h-.88A.91.91,0,0,1,82,85.6a1.07,1.07,0,0,1-.21-.74,1.06,1.06,0,0,1,.21-.74.91.91,0,0,1,.68-.22h5a.94.94,0,0,1,.68.22,1.11,1.11,0,0,1,.2.74,1.13,1.13,0,0,1-.2.74.94.94,0,0,1-.68.21h-1.8l4,7.89,3.77-7.89H92.29a.92.92,0,0,1-.68-.21,1.13,1.13,0,0,1-.2-.74,1.11,1.11,0,0,1,.2-.74.92.92,0,0,1,.68-.22H96.7A.92.92,0,0,1,97.38,84.12Z" transform="translate(-1.59 -24.53)" style="fill:#fff"/><path d="M107.77,84.42A5.55,5.55,0,0,1,110,86.69a8.05,8.05,0,0,1,.88,3.35.92.92,0,0,1-.2.67,1,1,0,0,1-.68.2H99.82a4.41,4.41,0,0,0,1.24,3.16,4.52,4.52,0,0,0,3.23,1.08,10,10,0,0,0,2.56-.33,9.35,9.35,0,0,0,2.22-.88.88.88,0,0,1,.43-.13c.33,0,.59.25.8.75a1.41,1.41,0,0,1,.13.53,1,1,0,0,1-.62.87,11.18,11.18,0,0,1-2.55.88,13,13,0,0,1-3,.34,7.53,7.53,0,0,1-3.62-.81A5.45,5.45,0,0,1,98.39,94a7.78,7.78,0,0,1-.79-3.63,7.2,7.2,0,0,1,.86-3.55,6.08,6.08,0,0,1,2.37-2.4,7,7,0,0,1,3.46-.84A6.89,6.89,0,0,1,107.77,84.42Zm-6.33,2.09A4.07,4.07,0,0,0,100,88.94h8.57a3.94,3.94,0,0,0-1.35-2.46,5.19,5.19,0,0,0-5.74,0Z" transform="translate(-1.59 -24.53)" style="fill:#fff"/><path d="M124.89,84.16a1,1,0,0,1,.56.87,1.82,1.82,0,0,1-.12.59c-.2.53-.47.8-.82.8a.69.69,0,0,1-.39-.12,3,3,0,0,0-1.47-.38,4.49,4.49,0,0,0-2.54.88,6.79,6.79,0,0,0-2.1,2.34,6.2,6.2,0,0,0-.82,3.1V95h4.73a.94.94,0,0,1,.68.22,1.11,1.11,0,0,1,.2.74,1.08,1.08,0,0,1-.2.73.9.9,0,0,1-.68.22h-9a.87.87,0,0,1-.68-.22,1,1,0,0,1-.21-.73,1.06,1.06,0,0,1,.21-.74.91.91,0,0,1,.68-.22h2.2V85.81H113.3a.91.91,0,0,1-.68-.21,1.07,1.07,0,0,1-.21-.74,1.06,1.06,0,0,1,.21-.74.91.91,0,0,1,.68-.22h2.86a.91.91,0,0,1,.68.22,1.06,1.06,0,0,1,.21.74v2.83a9.25,9.25,0,0,1,1.62-2.16,7.56,7.56,0,0,1,2-1.43,4.94,4.94,0,0,1,2.13-.5A3.93,3.93,0,0,1,124.89,84.16Z" transform="translate(-1.59 -24.53)" style="fill:#fff"/><path d="M133.74,84.12a1.11,1.11,0,0,1,.2.74V95h4.5a.91.91,0,0,1,.68.22,1.06,1.06,0,0,1,.21.74,1,1,0,0,1-.21.73.87.87,0,0,1-.68.22h-11a.88.88,0,0,1-.68-.22,1.08,1.08,0,0,1-.2-.73,1.11,1.11,0,0,1,.2-.74.92.92,0,0,1,.68-.22h4.39V85.81h-3.55a.94.94,0,0,1-.68-.21,1.13,1.13,0,0,1-.2-.74,1.11,1.11,0,0,1,.2-.74.94.94,0,0,1,.68-.22h4.77A1,1,0,0,1,133.74,84.12Z" transform="translate(-1.59 -24.53)" style="fill:#fff"/><path d="M152.21,83.81a.88.88,0,0,1,.24.7v2.66a.91.91,0,0,1-.24.71,1.23,1.23,0,0,1-.81.21.72.72,0,0,1-.68-.37A3.36,3.36,0,0,0,149,86.1a7.86,7.86,0,0,0-2.92-.47,4,4,0,0,0-2.13.48,1.53,1.53,0,0,0-.76,1.36,1,1,0,0,0,.29.73,2.08,2.08,0,0,0,.84.46,6.7,6.7,0,0,0,1.08.24c.4.06.93.12,1.58.18.9.11,1.64.2,2.19.29a8.5,8.5,0,0,1,1.58.4A3.86,3.86,0,0,1,152.47,91a3.1,3.1,0,0,1,.62,2,3.81,3.81,0,0,1-.64,2.21,4,4,0,0,1-1.86,1.47,7.47,7.47,0,0,1-2.94.52,7.79,7.79,0,0,1-2.67-.42,5.49,5.49,0,0,1-2-1.28v.79a.88.88,0,0,1-.24.7,1.24,1.24,0,0,1-.82.21,1.23,1.23,0,0,1-.81-.21.88.88,0,0,1-.24-.7V92.9a.88.88,0,0,1,.24-.7,1.23,1.23,0,0,1,.81-.21.75.75,0,0,1,.47.13,1.09,1.09,0,0,1,.29.44,3.54,3.54,0,0,0,1.68,2,6.86,6.86,0,0,0,3.15.62,4.48,4.48,0,0,0,2.5-.59,1.83,1.83,0,0,0,.87-1.58,1.08,1.08,0,0,0-.31-.78,2.22,2.22,0,0,0-.89-.51,8.29,8.29,0,0,0-1.13-.26c-.42-.07-1-.13-1.62-.2-.88-.09-1.61-.19-2.2-.3a8.62,8.62,0,0,1-1.63-.44,3.82,3.82,0,0,1-1.59-1.13,3,3,0,0,1-.57-1.89,3.44,3.44,0,0,1,.64-2.1A3.89,3.89,0,0,1,143.35,84a7,7,0,0,1,2.56-.44,7.31,7.31,0,0,1,2.49.4,5.75,5.75,0,0,1,1.94,1.14v-.63a.88.88,0,0,1,.24-.7,1.24,1.24,0,0,1,.82-.21A1.23,1.23,0,0,1,152.21,83.81Z" transform="translate(-1.59 -24.53)" style="fill:#fff"/><path d="M159.8,80.12a.88.88,0,0,1,.24.7V85h5.77a.92.92,0,0,1,.68.21,1.13,1.13,0,0,1,.2.74,1.11,1.11,0,0,1-.2.74.92.92,0,0,1-.68.22H160V92a4,4,0,0,0,.55,2.35,2.28,2.28,0,0,0,1.93.74,5.82,5.82,0,0,0,2-.38,10,10,0,0,0,2-1,.74.74,0,0,1,.43-.14c.32,0,.59.22.82.65a1.45,1.45,0,0,1,.18.63.83.83,0,0,1-.46.73A11.38,11.38,0,0,1,165,96.74a8.26,8.26,0,0,1-2.52.44A4.41,4.41,0,0,1,159,95.94a5.43,5.43,0,0,1-1.11-3.71V86.94h-2.84a1,1,0,0,1-.69-.22,1.11,1.11,0,0,1-.2-.74,1.13,1.13,0,0,1,.2-.74,1,1,0,0,1,.69-.21h2.84V80.82a.88.88,0,0,1,.24-.7,1.18,1.18,0,0,1,.82-.22A1.17,1.17,0,0,1,159.8,80.12Z" transform="translate(-1.59 -24.53)" style="fill:#fff"/></svg>