<?xml version="1.0" encoding="utf-8"?>
<!-- Generator: Adobe Illustrator 26.0.3, SVG Export Plug-In . SVG Version: 6.00 Build 0)  -->
<svg version="1.1" id="Layer_1" xmlns="http://www.w3.org/2000/svg" xmlns:xlink="http://www.w3.org/1999/xlink" x="0px" y="0px"
	 viewBox="0 0 437.3 113.7" style="enable-background:new 0 0 437.3 113.7;" xml:space="preserve">
<style type="text/css">
	.st0{fill:#556169;}
	.st1{fill:#FF7062;}
	.st2{fill:#88A2AA;}
	.st3{fill:#FFFFFF;}
	.st4{enable-background:new    ;}
</style>
<g id="podcast-new-episode-graphic-tile-overlay" transform="translate(-392.237 -505.1)">
	<g id="Group_3743" transform="translate(278.047 449.388)">
		<rect id="Rectangle_1933" x="132.4" y="84.8" class="st0" width="4.9" height="27.8"/>
		<rect id="Rectangle_1934" x="128.7" y="84.8" class="st0" width="1.2" height="25.5"/>
		<g id="Group_3736" transform="translate(129.323 69.671)">
			<circle id="Ellipse_674" class="st1" cx="1.6" cy="1.6" r="1.6"/>
			<circle id="Ellipse_675" class="st1" cx="7.9" cy="1.6" r="1.6"/>
			<circle id="Ellipse_676" class="st1" cx="14.1" cy="1.6" r="1.6"/>
		</g>
		<g id="Group_3737" transform="translate(132.44 63.232)">
			<circle id="Ellipse_677" class="st1" cx="1.6" cy="1.6" r="1.6"/>
			<circle id="Ellipse_678" class="st1" cx="7.9" cy="1.6" r="1.6"/>
		</g>
		<g id="Group_3738" transform="translate(132.44 76.56)">
			<circle id="Ellipse_679" class="st1" cx="1.6" cy="1.6" r="1.6"/>
			<circle id="Ellipse_680" class="st1" cx="7.9" cy="1.6" r="1.6"/>
		</g>
		<g id="Group_3739" transform="translate(114.19 55.712)">
			<path id="Path_3792" class="st2" d="M23,58.2c7.5,0,13.7-6.1,13.7-13.7V13.7C36.6,6.1,30.4,0.1,22.9,0.1
				C15.4,0.2,9.4,6.2,9.3,13.7v30.8C9.3,52,15.4,58.1,23,58.2z M23,2.6c6.1,0,11.1,5,11.1,11.1v14.1H11.9V13.7
				C11.9,7.5,16.9,2.6,23,2.6z M11.9,30.4h22.2v14.1c-0.1,6.1-5.1,11-11.2,11c-6-0.1-10.9-4.9-11-11L11.9,30.4z"/>
			<path id="Path_3793" class="st2" d="M46,44.9h-2.6c0,11.3-9.1,20.4-20.4,20.4c-11.3,0-20.4-9.1-20.4-20.4H0
				c0,12.2,9.5,22.2,21.7,22.9V85h2.6V67.9C36.4,67.2,46,57.1,46,44.9z"/>
		</g>
		<g id="Group_3742" transform="translate(209.076 57.108)">
			<g id="Group_3740" transform="translate(0 42.588)">
				<path id="Path_3794" class="st3" d="M0,36.4V1.1h19.7c5,0,8.7,1.4,11.1,4.1c4.1,4.4,3.9,11.2-0.5,15.3c0,0,0,0-0.1,0
					c-2.3,2.2-5.6,3.5-10.6,3.5H9.5v12.4L0,36.4z M9.5,8.8v7.5h10.8c1,0.1,2-0.3,2.8-1c0.7-0.7,1.2-1.7,1.2-2.8c0-1-0.4-2-1.1-2.8
					c-0.8-0.7-1.8-1.1-2.9-1L9.5,8.8z"/>
				<path id="Path_3795" class="st3" d="M68,0c11.3,0,20.3,8.4,20.3,18.7c0,10.4-9,18.8-20.3,18.8s-20.1-8.4-20.1-18.8
					C47.9,8.4,56.7,0,68,0z M68,29.6c5.9-0.1,10.6-5,10.4-10.9c0.2-5.7-4.3-10.5-10-10.7c-5.7-0.2-10.5,4.3-10.7,10
					c0,0.2,0,0.5,0,0.7C57.7,24.6,62.2,29.6,68,29.6L68,29.6z"/>
				<path id="Path_3796" class="st3" d="M106.2,36.4V1.1h16.3c6.6,0,11.5,1.8,14.8,5.3c6.4,7.2,6.3,18-0.3,25c-3.1,3-7.5,5-14.5,5
					L106.2,36.4z M122.3,28.5c3.6,0,5.5-0.8,7-2.3c2-1.9,3-4.6,2.9-7.3c0.1-2.6-0.8-5.2-2.6-7.1C128,10,126.2,9,122.3,9h-6.6v19.4
					L122.3,28.5z"/>
				<path id="Path_3797" class="st3" d="M195.6,30.3c-5.1,4.6-11.6,7.1-18.5,7.2c-11.8,0-19.7-8.4-19.7-18.8
					c0-10.1,7.9-18.7,19.4-18.7c6.4,0.1,12.6,2.2,17.6,6.1l-5.7,6.2c-3-2.5-6.8-4-10.8-4.3c-5.8-0.2-10.6,4.4-10.8,10.2
					c0,0.2,0,0.4,0,0.7c-0.1,5.9,4.5,10.7,10.4,10.8c0.2,0,0.4,0,0.7,0c4.1,0,8.4-2.4,11.5-5.4L195.6,30.3z"/>
				<path id="Path_3798" class="st3" d="M207.2,36.4l16.4-35.3h7.8l16.4,35.3h-10.3l-2.3-5.4h-15.8l-2.2,5.4H207.2z M222.4,23.6h9.7
					l-4.7-11.3h-0.3L222.4,23.6z"/>
				<path id="Path_3799" class="st3" d="M288.7,10.9c-3.6-2.2-7.7-3.4-12-3.5c-2.9,0-5.4,1.3-5.4,3.6c0,2.5,4.1,2.7,7.9,3.1
					c6.5,0.4,16.7,1.3,16.7,10.9c0,8.9-7.4,12.4-16.2,12.4c-7.1,0-14-2.3-19.6-6.5l5.1-6.4c2.4,1.7,8.1,5.6,14.3,5.6
					c4.4,0,6.9-1.9,6.9-4.2c0-2.5-3-3-7.6-3.4c-7.9-0.6-17-1.5-17-10.9c0-8.8,8.2-11.5,15-11.5c5.9,0,11.7,1.5,16.9,4.3L288.7,10.9z
					"/>
				<path id="Path_3800" class="st3" d="M309.7,1.1h32.8v8h-11.6v27.4h-9.5V9h-11.7V1.1z"/>
			</g>
			<g id="Group_3741">
				<path id="Path_3801" class="st1" d="M104.9,0.1c-0.3-0.2-1.4,0-1.7,0.1c-0.2,0-0.3,0-0.5,0c-0.4,0-1.2,0-2.4,0
					c-0.8,0-1.7,0.1-2.5,0.3l1.8,1.3l0,0L100,2c0.2,0.2,0.3,0.4,0.3,0.7c0,0.3,0,0.7,0.1,1l0,0.6c0,0,0,0.1,0,0.1c0,0.3,0,0.6,0,1.2
					c0.2-0.2,0.3-0.4,0.5-0.6l2.1-2.5l0.5-0.6c0.1-0.1,0.2-0.2,0.3-0.3l0.6-0.6C104.5,0.7,104.8,0.4,104.9,0.1L104.9,0.1L104.9,0.1z
					"/>
				<path id="Path_3802" class="st3" d="M9.4,5.2c0.3,0.5,0.3,1,0,1.5C9.2,6.9,9,6.9,8.7,6.9H5.3v12.9h7v-4.6c0-0.3,0.1-0.5,0.2-0.7
					c0.5-0.3,1.1-0.3,1.6,0c0.2,0.2,0.3,0.4,0.2,0.7v5.6c0,0.3,0,0.5-0.2,0.7c-0.2,0.2-0.4,0.2-0.7,0.2H0.9c-0.2,0-0.5-0.1-0.7-0.2
					c-0.3-0.5-0.3-1,0-1.5c0.2-0.2,0.4-0.2,0.7-0.2h2.3V6.9H0.9c-0.2,0-0.5-0.1-0.7-0.2c-0.3-0.5-0.3-1,0-1.5C0.4,5,0.6,5,0.9,5h7.8
					C9,5,9.2,5,9.4,5.2z"/>
				<path id="Path_3803" class="st3" d="M27.6,9.6c0.9,0.9,1.4,2.2,1.3,3.5v5.6c0,0.7,0.3,1.1,0.9,1.1h0.5c0.2,0,0.5,0.1,0.7,0.2
					c0.3,0.5,0.3,1,0,1.5c-0.2,0.2-0.4,0.2-0.7,0.2h-0.9c-0.6,0-1.1-0.1-1.6-0.5c-0.4-0.3-0.8-0.8-0.9-1.3c-0.7,0.7-1.6,1.2-2.5,1.6
					c-0.9,0.4-1.9,0.6-2.9,0.6c-0.9,0-1.7-0.1-2.5-0.5c-1.5-0.6-2.4-2.1-2.3-3.6c-0.1-1.3,0.5-2.6,1.6-3.3c1.2-0.8,2.7-1.1,4.1-1.1
					c1.5,0,2.9,0.2,4.3,0.7v-1.2c0.1-0.8-0.2-1.5-0.8-2c-0.7-0.5-1.6-0.7-2.5-0.6c-0.7,0-1.5,0.1-2.2,0.3c-0.8,0.2-1.5,0.5-2.2,0.8
					c-0.1,0.1-0.3,0.1-0.4,0.1c-0.3,0-0.6-0.2-0.8-0.7c-0.1-0.2-0.1-0.4-0.2-0.6c0-0.3,0.2-0.6,0.5-0.8c0.8-0.4,1.7-0.7,2.5-1
					c0.9-0.2,1.8-0.3,2.7-0.3C25.1,8.3,26.5,8.7,27.6,9.6z M20,16.1c-0.6,0.4-1,1.1-0.9,1.8c0,0.6,0.2,1.2,0.7,1.6
					c0.6,0.4,1.3,0.6,2,0.6c1.9,0,3.8-0.9,5.1-2.3v-1.5c-0.7-0.2-1.4-0.4-2.1-0.5c-0.7-0.1-1.5-0.2-2.2-0.2
					C21.6,15.5,20.8,15.7,20,16.1z"/>
				<path id="Path_3804" class="st3" d="M48.5,8.9c0.3,0.5,0.3,1,0,1.5c-0.2,0.2-0.4,0.2-0.7,0.2h-0.3l-2.8,10.5
					c-0.1,0.3-0.2,0.5-0.4,0.7c-0.2,0.2-0.5,0.2-0.8,0.2c-0.3,0-0.7-0.1-1-0.2c-0.2-0.2-0.4-0.4-0.5-0.7L39.9,15l-2.2,6.1
					c-0.1,0.3-0.3,0.5-0.5,0.7c-0.3,0.2-0.6,0.2-1,0.2c-0.3,0-0.6-0.1-0.8-0.2c-0.2-0.2-0.4-0.4-0.4-0.7l-2.7-10.5H32
					c-0.2,0-0.5-0.1-0.7-0.2c-0.3-0.5-0.3-1,0-1.5c0.2-0.2,0.4-0.2,0.7-0.2h4.1c0.2,0,0.5,0.1,0.7,0.2c0.3,0.5,0.3,1,0,1.5
					c-0.2,0.2-0.4,0.2-0.7,0.2h-1.7l2,8.2l2.4-6.6c0.1-0.2,0.2-0.4,0.4-0.5c0.2-0.1,0.5-0.2,0.7-0.2c0.6,0,1,0.2,1.1,0.6l2.3,6.6
					l2.1-8.2H44c-0.2,0-0.5-0.1-0.7-0.2c-0.3-0.5-0.3-1,0-1.5c0.2-0.2,0.4-0.2,0.7-0.2h3.9C48.1,8.7,48.3,8.8,48.5,8.9z"/>
				<path id="Path_3805" class="st3" d="M65.6,8.9c0.3,0.5,0.3,1,0,1.5c-0.2,0.2-0.4,0.2-0.7,0.2h-0.9l-5.8,11.8
					c-0.5,1-1.1,2-1.8,2.9c-0.5,0.7-1.2,1.2-2,1.6c-0.8,0.4-1.7,0.5-2.7,0.6c-0.3,0-0.6-0.1-0.8-0.2c-0.2-0.3-0.3-0.6-0.3-0.9
					c0-0.6,0.2-0.9,0.7-1c0.7,0,1.5-0.2,2.2-0.5c0.6-0.3,1.1-0.8,1.5-1.3c0.6-0.9,1.2-1.9,1.6-2.9l-5.2-10.1h-0.9
					c-0.2,0-0.5-0.1-0.7-0.2c-0.3-0.5-0.3-1,0-1.5c0.2-0.2,0.4-0.2,0.7-0.2h5c0.2,0,0.5,0.1,0.7,0.2c0.3,0.5,0.3,1,0,1.5
					c-0.2,0.2-0.4,0.2-0.7,0.2H54l4,7.9l3.8-7.9h-1.3c-0.2,0-0.5-0.1-0.7-0.2c-0.3-0.5-0.3-1,0-1.5c0.2-0.2,0.4-0.2,0.7-0.2H65
					C65.2,8.7,65.4,8.8,65.6,8.9z"/>
				<path id="Path_3806" class="st3" d="M76.1,9.2c0.9,0.5,1.7,1.3,2.2,2.3c0.5,1,0.8,2.2,0.9,3.4c0,0.2,0,0.5-0.2,0.7
					c-0.2,0.2-0.4,0.2-0.7,0.2H68.1c0,1.2,0.4,2.3,1.2,3.2c0.9,0.8,2.1,1.2,3.3,1.1c0.9,0,1.7-0.1,2.6-0.3c0.8-0.2,1.5-0.5,2.2-0.9
					c0.1-0.1,0.3-0.1,0.4-0.1c0.3,0,0.6,0.2,0.8,0.7c0.1,0.2,0.1,0.4,0.1,0.5c0,0.4-0.3,0.7-0.6,0.9c-0.8,0.4-1.7,0.7-2.6,0.9
					c-1,0.2-2,0.3-3,0.3c-1.3,0-2.5-0.2-3.6-0.8c-1-0.5-1.8-1.4-2.3-2.4c-0.6-1.1-0.8-2.4-0.8-3.7c0-1.2,0.3-2.5,0.9-3.6
					c0.6-1,1.4-1.8,2.4-2.4C71.3,8.1,73.9,8.1,76.1,9.2L76.1,9.2z M69.7,11.3c-0.8,0.6-1.3,1.5-1.5,2.4h8.6c-0.1-1-0.6-1.8-1.4-2.5
					C73.7,10.1,71.5,10.1,69.7,11.3L69.7,11.3z"/>
				<path id="Path_3807" class="st3" d="M93.3,9c0.3,0.2,0.6,0.5,0.6,0.9c0,0.2-0.1,0.4-0.1,0.6c-0.2,0.5-0.5,0.8-0.8,0.8
					c-0.1,0-0.3,0-0.4-0.1c-0.5-0.3-1-0.4-1.5-0.4c-0.9,0-1.8,0.3-2.6,0.9c-0.9,0.6-1.6,1.4-2.1,2.4c-0.5,1-0.8,2-0.8,3.1v2.7h4.8
					c0.2,0,0.5,0.1,0.7,0.2c0.3,0.5,0.3,1,0,1.5c-0.2,0.2-0.4,0.2-0.7,0.2h-9.1c-0.2,0-0.5-0.1-0.7-0.2c-0.3-0.5-0.3-1,0-1.5
					c0.2-0.2,0.4-0.2,0.7-0.2h2.2v-9.2h-1.8c-0.2,0-0.5-0.1-0.7-0.2c-0.3-0.5-0.3-1,0-1.5c0.2-0.2,0.4-0.2,0.7-0.2h2.9
					c0.2,0,0.5,0.1,0.7,0.2c0.2,0.2,0.2,0.5,0.2,0.7v2.9c0.4-0.8,1-1.5,1.6-2.2c0.6-0.6,1.3-1.1,2-1.4c0.7-0.3,1.4-0.5,2.1-0.5
					C92,8.4,92.7,8.6,93.3,9z"/>
				<path id="Path_3808" class="st3" d="M102.2,8.9c0.2,0.2,0.2,0.5,0.2,0.7v10.2h4.5c0.2,0,0.5,0.1,0.7,0.2c0.3,0.5,0.3,1,0,1.5
					c-0.2,0.2-0.4,0.2-0.7,0.2H95.9c-0.2,0-0.5-0.1-0.7-0.2c-0.3-0.5-0.3-1,0-1.5c0.2-0.2,0.4-0.2,0.7-0.2h4.4v-9.2h-3.6
					c-0.2,0-0.5-0.1-0.7-0.2c-0.3-0.5-0.3-1,0-1.5c0.2-0.2,0.4-0.2,0.7-0.2h4.8C101.8,8.7,102,8.8,102.2,8.9z"/>
				<path id="Path_3809" class="st3" d="M120.8,8.6c0.2,0.2,0.3,0.4,0.2,0.7V12c0,0.3-0.1,0.5-0.2,0.7c-0.2,0.2-0.5,0.2-0.8,0.2
					c-0.3,0-0.5-0.1-0.7-0.4c-0.4-0.7-1-1.3-1.8-1.6c-0.9-0.3-1.9-0.5-2.9-0.5c-0.7,0-1.5,0.1-2.1,0.5c-0.5,0.3-0.8,0.8-0.8,1.4
					c0,0.3,0.1,0.5,0.3,0.7c0.2,0.2,0.5,0.4,0.9,0.5c0.4,0.1,0.7,0.2,1.1,0.2c0.4,0.1,0.9,0.1,1.6,0.2c0.9,0.1,1.6,0.2,2.2,0.3
					c0.5,0.1,1.1,0.2,1.6,0.4c0.7,0.2,1.3,0.6,1.8,1.2c0.4,0.6,0.7,1.3,0.6,2c0,0.8-0.2,1.6-0.6,2.2c-0.5,0.7-1.1,1.2-1.9,1.5
					c-0.9,0.4-1.9,0.5-3,0.5c-0.9,0-1.8-0.1-2.7-0.4c-0.8-0.3-1.4-0.7-2-1.3v0.8c0,0.3-0.1,0.5-0.2,0.7c-0.5,0.3-1.1,0.3-1.6,0
					c-0.2-0.2-0.3-0.4-0.2-0.7v-3.4c0-0.3,0.1-0.5,0.2-0.7c0.2-0.2,0.5-0.2,0.8-0.2c0.2,0,0.3,0,0.5,0.1c0.1,0.1,0.2,0.3,0.3,0.4
					c0.3,0.9,0.9,1.6,1.7,2c1,0.5,2.1,0.7,3.2,0.6c0.9,0.1,1.8-0.2,2.5-0.6c0.6-0.3,0.9-0.9,0.9-1.6c0-0.3-0.1-0.6-0.3-0.8
					c-0.3-0.2-0.6-0.4-0.9-0.5c-0.4-0.1-0.8-0.2-1.1-0.3c-0.4-0.1-1-0.1-1.6-0.2c-0.9-0.1-1.6-0.2-2.2-0.3c-0.6-0.1-1.1-0.2-1.6-0.5
					c-0.6-0.2-1.2-0.6-1.6-1.1c-0.4-0.5-0.6-1.2-0.6-1.9c0-0.8,0.2-1.5,0.6-2.1c0.5-0.6,1.1-1.1,1.8-1.3c0.8-0.3,1.7-0.5,2.6-0.5
					c0.9,0,1.7,0.1,2.5,0.4c0.7,0.3,1.4,0.6,2,1.1V9.3c0-0.3,0.1-0.5,0.2-0.7C119.7,8.3,120.3,8.3,120.8,8.6L120.8,8.6z"/>
				<path id="Path_3810" class="st3" d="M128.4,4.9c0.2,0.2,0.3,0.4,0.2,0.7v4.2h5.8c0.2,0,0.5,0.1,0.7,0.2c0.3,0.5,0.3,1,0,1.5
					c-0.2,0.2-0.4,0.2-0.7,0.2h-5.8v5.1c-0.1,0.8,0.1,1.6,0.6,2.4c0.5,0.5,1.2,0.8,1.9,0.7c0.7,0,1.4-0.1,2-0.4c0.7-0.3,1.4-0.6,2-1
					c0.1-0.1,0.3-0.1,0.4-0.1c0.3,0,0.6,0.2,0.8,0.7c0.1,0.2,0.2,0.4,0.2,0.6c0,0.3-0.2,0.6-0.5,0.7c-0.8,0.5-1.6,0.9-2.5,1.1
					c-0.8,0.3-1.7,0.4-2.5,0.4c-1.3,0.1-2.6-0.3-3.5-1.2c-0.8-1.1-1.2-2.4-1.1-3.7v-5.3h-2.9c-0.2,0-0.5-0.1-0.7-0.2
					c-0.3-0.5-0.3-1,0-1.5c0.2-0.2,0.4-0.2,0.7-0.2h2.9V5.6c0-0.3,0.1-0.5,0.2-0.7C127.3,4.6,127.9,4.6,128.4,4.9L128.4,4.9z"/>
			</g>
		</g>
	</g>
	
		<rect id="Rectangle_1932" x="661.2" y="587" transform="matrix(0.9903 -0.1392 0.1392 0.9903 -76.0928 107.796)" class="st1" width="143" height="22"/>
	<g class="st4">
		<path class="st3" d="M675,601.6l-0.6,0.1c-0.2,0-0.3,0-0.4-0.1c-0.1-0.1-0.2-0.2-0.2-0.4c0-0.2,0-0.4,0.1-0.5
			c0.1-0.1,0.2-0.2,0.4-0.2l1.8-0.3c0.2,0,0.4,0,0.5,0.2l4.9,6.4l-0.9-6.1l-1,0.1c-0.2,0-0.3,0-0.4-0.1c-0.1-0.1-0.2-0.2-0.2-0.4
			c0-0.2,0-0.4,0.1-0.5c0.1-0.1,0.2-0.2,0.4-0.2l2.7-0.4c0.2,0,0.3,0,0.4,0.1c0.1,0.1,0.2,0.2,0.2,0.4c0,0.2,0,0.4-0.1,0.5
			c-0.1,0.1-0.2,0.2-0.4,0.2l-0.5,0.1l1.2,8.3c0,0.1,0,0.3-0.1,0.4c-0.1,0.1-0.2,0.2-0.5,0.2c-0.2,0-0.3,0-0.4-0.1s-0.2-0.2-0.3-0.3
			l-5.3-7l1,6.8l1.1-0.2c0.2,0,0.3,0,0.4,0.1c0.1,0.1,0.2,0.2,0.2,0.4s0,0.4-0.1,0.5c-0.1,0.1-0.2,0.2-0.4,0.2l-2.9,0.4
			c-0.2,0-0.3,0-0.4-0.1c-0.1-0.1-0.2-0.2-0.2-0.4s0-0.4,0.1-0.5c0.1-0.1,0.2-0.2,0.4-0.2l0.6-0.1L675,601.6z"/>
		<path class="st3" d="M686.6,605.2c0.2,0.8,0.5,1.4,0.9,1.8c0.5,0.4,1.1,0.5,1.9,0.4c0.6-0.1,1.1-0.2,1.6-0.4s0.9-0.4,1.3-0.7
			c0.2-0.1,0.3-0.2,0.4-0.1c0.1,0.1,0.2,0.2,0.3,0.3c0.1,0.2,0.1,0.3,0.1,0.5c0,0.1-0.1,0.3-0.3,0.4c-0.2,0.1-0.4,0.3-0.7,0.4
			c-0.2,0.1-0.5,0.2-0.8,0.3c-0.3,0.1-0.6,0.2-0.9,0.3c-0.3,0.1-0.6,0.1-0.9,0.2c-0.6,0.1-1.2,0.1-1.6,0c-0.5-0.1-0.9-0.3-1.3-0.6
			c-0.4-0.3-0.7-0.7-0.9-1.1c-0.2-0.5-0.4-1-0.5-1.6c-0.1-0.6-0.1-1.2,0.1-1.7s0.3-1,0.6-1.4c0.3-0.4,0.7-0.7,1.1-1
			c0.5-0.3,1-0.4,1.5-0.5c0.6-0.1,1.2-0.1,1.7,0.1c0.5,0.1,0.9,0.3,1.3,0.6c0.4,0.3,0.7,0.7,0.9,1.1c0.2,0.4,0.4,0.9,0.5,1.5
			c0,0.2,0,0.3-0.1,0.4c-0.1,0.1-0.2,0.1-0.4,0.2L686.6,605.2z M688.8,601.7c-0.7,0.1-1.2,0.3-1.6,0.7s-0.6,0.9-0.7,1.5l5-0.7
			c-0.2-0.6-0.5-1-1-1.3S689.5,601.6,688.8,601.7z"/>
		<path class="st3" d="M694.2,601.1c-0.2,0-0.3,0-0.4-0.1c-0.1-0.1-0.2-0.2-0.2-0.4c0-0.2,0-0.4,0.1-0.5c0.1-0.1,0.2-0.2,0.4-0.2
			l2.4-0.3c0.2,0,0.3,0,0.4,0.1c0.1,0.1,0.2,0.2,0.2,0.4c0,0.2,0,0.4-0.1,0.5c-0.1,0.1-0.2,0.2-0.4,0.2l-1,0.1l1.9,4.6l0.8-4
			c0-0.1,0.1-0.2,0.2-0.3c0.1-0.1,0.2-0.1,0.4-0.2c0.2,0,0.3,0,0.4,0c0.1,0,0.2,0.1,0.2,0.2l1.9,3.7l0.5-5l-0.8,0.1
			c-0.2,0-0.3,0-0.4-0.1c-0.1-0.1-0.2-0.2-0.2-0.4c0-0.2,0-0.4,0.1-0.5c0.1-0.1,0.2-0.2,0.4-0.2l2.3-0.3c0.2,0,0.3,0,0.4,0.1
			c0.1,0.1,0.2,0.2,0.2,0.4c0,0.2,0,0.4-0.1,0.5c-0.1,0.1-0.2,0.2-0.4,0.2l-0.2,0l-0.8,6.4c0,0.2-0.1,0.4-0.2,0.5
			c-0.1,0.1-0.2,0.2-0.5,0.2c-0.2,0-0.4,0-0.6,0c-0.1-0.1-0.3-0.2-0.4-0.4l-1.8-3.4l-0.8,3.7c0,0.2-0.1,0.4-0.2,0.5
			c-0.1,0.1-0.3,0.2-0.5,0.2c-0.2,0-0.4,0-0.5-0.1c-0.1-0.1-0.2-0.2-0.3-0.4l-2.4-5.9L694.2,601.1z"/>
		<path class="st3" d="M715.7,595.8l-0.8,0.1c-0.2,0-0.3,0-0.4-0.1c-0.1-0.1-0.2-0.2-0.2-0.4c0-0.2,0-0.4,0.1-0.5
			c0.1-0.1,0.2-0.2,0.4-0.2l7.2-1c0.2,0,0.3,0,0.4,0.1c0.1,0.1,0.2,0.2,0.2,0.4l0.3,2.1c0,0.2,0,0.3-0.1,0.4
			c-0.1,0.1-0.2,0.2-0.5,0.2c-0.2,0-0.4,0-0.5-0.1c-0.1-0.1-0.2-0.2-0.2-0.4l-0.2-1.5l-4.4,0.6l0.4,3l2.1-0.3l-0.1-0.7
			c0-0.2,0-0.3,0.1-0.4c0.1-0.1,0.2-0.2,0.5-0.2c0.2,0,0.4,0,0.5,0.1c0.1,0.1,0.2,0.2,0.2,0.4l0.4,2.6c0,0.2,0,0.3-0.1,0.4
			c-0.1,0.1-0.2,0.2-0.5,0.2c-0.2,0-0.4,0-0.5-0.1c-0.1-0.1-0.2-0.2-0.2-0.4l-0.1-0.7l-2.1,0.3l0.5,3.4l4.6-0.6l-0.3-1.9
			c0-0.2,0-0.3,0.1-0.4c0.1-0.1,0.2-0.2,0.5-0.2c0.2,0,0.4,0,0.5,0.1c0.1,0.1,0.2,0.2,0.2,0.4l0.3,2.4c0,0.2,0,0.4-0.1,0.5
			c-0.1,0.1-0.2,0.2-0.4,0.2l-7.3,1c-0.2,0-0.3,0-0.4-0.1c-0.1-0.1-0.2-0.2-0.2-0.4s0-0.4,0.1-0.5c0.1-0.1,0.2-0.2,0.4-0.2l0.8-0.1
			L715.7,595.8z"/>
		<path class="st3" d="M725.7,596.6l-0.7,0.1c-0.2,0-0.3,0-0.4-0.1c-0.1-0.1-0.2-0.2-0.2-0.4c0-0.2,0-0.4,0.1-0.5
			c0.1-0.1,0.2-0.2,0.4-0.2l1.3-0.2c0.2,0,0.3,0,0.4,0.1c0.1,0.1,0.2,0.2,0.2,0.4l0.1,0.7c0.3-0.5,0.6-0.9,1-1.2
			c0.4-0.3,0.9-0.5,1.4-0.6c0.5-0.1,1-0.1,1.5,0.1s0.9,0.3,1.2,0.6c0.4,0.3,0.7,0.6,0.9,1.1s0.4,1,0.5,1.5s0.1,1.1,0,1.6
			s-0.3,0.9-0.6,1.3c-0.3,0.4-0.6,0.7-1,0.9c-0.4,0.2-0.9,0.4-1.4,0.5c-0.5,0.1-1.1,0-1.5-0.1c-0.5-0.2-0.9-0.4-1.3-0.8l0.5,3.6
			l1.8-0.3c0.2,0,0.3,0,0.4,0.1c0.1,0.1,0.2,0.2,0.2,0.4c0,0.2,0,0.4-0.1,0.5c-0.1,0.1-0.2,0.2-0.4,0.2l-4,0.6c-0.2,0-0.3,0-0.4-0.1
			s-0.2-0.2-0.2-0.4c0-0.2,0-0.4,0.1-0.5c0.1-0.1,0.2-0.2,0.4-0.2l0.9-0.1L725.7,596.6z M727.3,598.9c0.1,0.4,0.2,0.8,0.3,1.1
			c0.2,0.3,0.4,0.5,0.6,0.7c0.3,0.2,0.5,0.3,0.9,0.4c0.3,0.1,0.7,0.1,1,0c0.4-0.1,0.7-0.2,1-0.3c0.3-0.2,0.5-0.4,0.7-0.6
			c0.2-0.3,0.3-0.5,0.3-0.9s0.1-0.7,0-1.1c-0.1-0.4-0.2-0.7-0.3-1c-0.1-0.3-0.3-0.5-0.6-0.7c-0.2-0.2-0.5-0.3-0.8-0.4
			c-0.3-0.1-0.6-0.1-1,0c-0.4,0.1-0.7,0.2-1,0.3c-0.3,0.2-0.5,0.4-0.7,0.6c-0.2,0.2-0.3,0.5-0.4,0.9
			C727.3,598.2,727.3,598.5,727.3,598.9z"/>
		<path class="st3" d="M738.8,594.8l-2.1,0.3c-0.2,0-0.3,0-0.4-0.1c-0.1-0.1-0.2-0.2-0.2-0.4c0-0.2,0-0.4,0.1-0.5
			c0.1-0.1,0.2-0.2,0.4-0.2l2.8-0.4c0.2,0,0.3,0,0.4,0.1c0.1,0.1,0.2,0.2,0.2,0.4l0.8,5.9l2.6-0.4c0.2,0,0.3,0,0.4,0.1
			c0.1,0.1,0.2,0.2,0.2,0.4s0,0.4-0.1,0.5c-0.1,0.1-0.2,0.2-0.4,0.2l-6.4,0.9c-0.2,0-0.3,0-0.4-0.1c-0.1-0.1-0.2-0.2-0.2-0.4
			s0-0.4,0.1-0.5c0.1-0.1,0.2-0.2,0.4-0.2l2.6-0.4L738.8,594.8z M739.6,591.5c0,0.2,0,0.3-0.1,0.4c-0.1,0.1-0.3,0.2-0.6,0.2
			s-0.5,0-0.6,0c-0.1-0.1-0.2-0.2-0.2-0.4l-0.2-1.1c0-0.2,0-0.3,0.1-0.4c0.1-0.1,0.3-0.2,0.6-0.2c0.3,0,0.5,0,0.6,0s0.2,0.2,0.2,0.4
			L739.6,591.5z"/>
		<path class="st3" d="M747.8,599.8c0,0.2,0,0.3-0.1,0.4c-0.1,0.1-0.2,0.2-0.5,0.2c-0.2,0-0.4,0-0.5-0.1c-0.1-0.1-0.2-0.2-0.2-0.4
			l-0.3-2c0-0.2,0-0.3,0.1-0.4c0.1-0.1,0.2-0.2,0.5-0.2c0.1,0,0.2,0,0.3,0c0.1,0,0.1,0.1,0.2,0.2c0.3,0.5,0.7,0.8,1.2,1
			c0.5,0.2,1.1,0.2,1.9,0.1c0.7-0.1,1.1-0.3,1.4-0.6c0.3-0.3,0.4-0.6,0.4-1c0-0.2-0.1-0.3-0.3-0.4c-0.1-0.1-0.3-0.2-0.5-0.2
			c-0.3,0-0.5-0.1-0.9-0.1c-0.3,0-0.7,0-1,0c-0.4,0-0.7,0-1.1,0c-0.4,0-0.7-0.1-1-0.1c-0.2,0-0.4-0.1-0.5-0.2
			c-0.2-0.1-0.3-0.2-0.5-0.3c-0.1-0.1-0.2-0.3-0.3-0.5c-0.1-0.2-0.2-0.4-0.2-0.6c-0.1-0.4,0-0.7,0.1-1c0.1-0.3,0.3-0.6,0.5-0.8
			c0.2-0.2,0.5-0.4,0.9-0.6c0.3-0.1,0.7-0.3,1.1-0.3c0.5-0.1,1.1-0.1,1.5,0c0.5,0.1,0.9,0.3,1.2,0.5l-0.1-0.4c0-0.2,0-0.3,0.1-0.4
			c0.1-0.1,0.2-0.2,0.5-0.2c0.2,0,0.4,0,0.5,0.1c0.1,0.1,0.2,0.2,0.2,0.4l0.2,1.6c0,0.2,0,0.3-0.1,0.4c-0.1,0.1-0.2,0.2-0.5,0.2
			c-0.2,0-0.3,0-0.4-0.2c-0.2-0.2-0.3-0.4-0.5-0.5c-0.2-0.1-0.4-0.2-0.7-0.3c-0.2-0.1-0.5-0.1-0.8-0.1c-0.3,0-0.6,0-0.9,0.1
			c-0.5,0.1-0.9,0.2-1.2,0.5c-0.3,0.2-0.4,0.5-0.3,0.9c0,0.2,0.1,0.3,0.2,0.4c0.1,0.1,0.3,0.2,0.5,0.2c0.2,0,0.5,0.1,0.8,0.1
			c0.3,0,0.6,0,1,0c0.3,0,0.7,0,1,0s0.7,0,1,0.1c0.2,0,0.4,0.1,0.6,0.2c0.2,0.1,0.4,0.2,0.5,0.3c0.1,0.1,0.3,0.3,0.4,0.5
			c0.1,0.2,0.2,0.4,0.2,0.7c0.1,0.4,0,0.7-0.1,1c-0.1,0.3-0.3,0.6-0.5,0.9c-0.2,0.3-0.6,0.5-0.9,0.6c-0.4,0.2-0.8,0.3-1.3,0.4
			c-0.6,0.1-1.1,0.1-1.6,0s-0.9-0.3-1.3-0.6L747.8,599.8z"/>
		<path class="st3" d="M755.7,595.2c-0.1-0.6-0.1-1.1,0.1-1.6c0.1-0.5,0.4-1,0.7-1.4c0.3-0.4,0.7-0.7,1.2-1c0.5-0.3,1-0.4,1.6-0.5
			c0.6-0.1,1.1-0.1,1.7,0.1c0.5,0.1,1,0.3,1.4,0.6c0.4,0.3,0.8,0.7,1,1.1s0.5,1,0.5,1.6c0.1,0.6,0.1,1.1-0.1,1.6
			c-0.1,0.5-0.4,1-0.7,1.4c-0.3,0.4-0.7,0.7-1.2,1c-0.5,0.3-1,0.4-1.6,0.5c-0.6,0.1-1.1,0.1-1.7-0.1c-0.5-0.1-1-0.3-1.4-0.6
			c-0.4-0.3-0.8-0.7-1-1.1C756,596.3,755.8,595.7,755.7,595.2z M757,595c0.1,0.4,0.2,0.8,0.4,1.1c0.2,0.3,0.4,0.6,0.7,0.8
			c0.3,0.2,0.6,0.4,1,0.5c0.4,0.1,0.7,0.1,1.2,0s0.8-0.2,1.1-0.4c0.3-0.2,0.6-0.4,0.8-0.7c0.2-0.3,0.4-0.6,0.4-1
			c0.1-0.4,0.1-0.7,0-1.1c-0.1-0.4-0.2-0.8-0.4-1.1c-0.2-0.3-0.4-0.6-0.7-0.8c-0.3-0.2-0.6-0.4-1-0.5c-0.4-0.1-0.7-0.1-1.2,0
			s-0.8,0.2-1.1,0.4c-0.3,0.2-0.6,0.4-0.8,0.7c-0.2,0.3-0.4,0.6-0.4,1C757,594.2,757,594.6,757,595z"/>
		<path class="st3" d="M774.3,595.3c0.2,0,0.3,0,0.4,0.1c0.1,0.1,0.2,0.2,0.2,0.4s0,0.4-0.1,0.5c-0.1,0.1-0.2,0.2-0.4,0.2l-1.3,0.2
			c-0.2,0-0.3,0-0.4-0.1c-0.1-0.1-0.2-0.2-0.2-0.4l-0.1-0.7c-0.3,0.5-0.6,0.9-1,1.2c-0.4,0.3-0.9,0.5-1.4,0.6
			c-0.5,0.1-1,0.1-1.5-0.1c-0.5-0.1-0.9-0.3-1.2-0.6c-0.4-0.3-0.7-0.6-0.9-1.1c-0.2-0.4-0.4-1-0.5-1.5c-0.1-0.6-0.1-1.1,0-1.6
			s0.3-0.9,0.6-1.3c0.3-0.4,0.6-0.7,1-0.9s0.9-0.4,1.4-0.5c0.5-0.1,1.1,0,1.5,0.1c0.5,0.2,0.9,0.4,1.3,0.8l-0.5-3.6l-1.7,0.2
			c-0.2,0-0.3,0-0.4-0.1c-0.1-0.1-0.2-0.2-0.2-0.4s0-0.4,0.1-0.5c0.1-0.1,0.2-0.2,0.4-0.2l2.4-0.3c0.2,0,0.3,0,0.4,0.1
			c0.1,0.1,0.2,0.2,0.2,0.4l1.3,9.1L774.3,595.3z M772.1,593.1c-0.1-0.4-0.2-0.8-0.3-1.1c-0.2-0.3-0.4-0.5-0.6-0.7
			c-0.3-0.2-0.5-0.3-0.9-0.4c-0.3-0.1-0.7-0.1-1,0c-0.4,0.1-0.7,0.2-1,0.3c-0.3,0.2-0.5,0.4-0.7,0.6c-0.2,0.3-0.3,0.5-0.3,0.9
			c-0.1,0.3-0.1,0.7,0,1.1c0.1,0.4,0.2,0.7,0.3,1c0.1,0.3,0.3,0.5,0.6,0.7c0.2,0.2,0.5,0.3,0.8,0.4c0.3,0.1,0.6,0.1,1,0
			c0.4-0.1,0.7-0.2,1-0.3c0.3-0.2,0.5-0.4,0.7-0.6c0.2-0.2,0.3-0.5,0.4-0.9C772.1,593.8,772.1,593.5,772.1,593.1z"/>
		<path class="st3" d="M777.5,592.4c0.2,0.8,0.5,1.4,0.9,1.8c0.5,0.4,1.1,0.5,1.9,0.4c0.6-0.1,1.1-0.2,1.6-0.4
			c0.5-0.2,0.9-0.4,1.3-0.7c0.2-0.1,0.3-0.2,0.4-0.1s0.2,0.2,0.3,0.3c0.1,0.2,0.1,0.3,0.1,0.5c0,0.1-0.1,0.3-0.3,0.4
			c-0.2,0.1-0.4,0.3-0.7,0.4c-0.2,0.1-0.5,0.2-0.8,0.3c-0.3,0.1-0.6,0.2-0.9,0.3c-0.3,0.1-0.6,0.1-0.9,0.2c-0.6,0.1-1.2,0.1-1.6,0
			s-0.9-0.3-1.3-0.6c-0.4-0.3-0.7-0.7-0.9-1.1c-0.2-0.5-0.4-1-0.5-1.6c-0.1-0.6-0.1-1.2,0.1-1.7s0.3-1,0.6-1.4
			c0.3-0.4,0.7-0.7,1.1-1c0.5-0.3,1-0.4,1.5-0.5c0.6-0.1,1.2-0.1,1.7,0.1c0.5,0.1,0.9,0.3,1.3,0.6c0.4,0.3,0.7,0.7,0.9,1.1
			s0.4,0.9,0.5,1.5c0,0.2,0,0.3-0.1,0.4c-0.1,0.1-0.2,0.1-0.4,0.2L777.5,592.4z M779.7,588.9c-0.7,0.1-1.2,0.3-1.6,0.8
			c-0.4,0.4-0.6,0.9-0.7,1.5l5-0.7c-0.2-0.6-0.5-1-1-1.3C781,588.9,780.4,588.8,779.7,588.9z"/>
		<path class="st3" d="M789.7,584.1c0.2,0,0.4,0.1,0.4,0.4l0.3,5.4c0,0.3-0.1,0.4-0.4,0.5c-0.1,0-0.3,0-0.4-0.1
			c-0.1-0.1-0.2-0.1-0.2-0.3l-1.1-5.3c-0.1-0.3,0-0.4,0.3-0.5L789.7,584.1z M789.2,593.2c0-0.2,0-0.3,0-0.5s0.1-0.3,0.2-0.4
			c0.1-0.1,0.2-0.2,0.4-0.3c0.1-0.1,0.3-0.1,0.5-0.2c0.2,0,0.3,0,0.5,0c0.2,0,0.3,0.1,0.4,0.2c0.1,0.1,0.2,0.2,0.3,0.4
			c0.1,0.1,0.1,0.3,0.2,0.5c0,0.2,0,0.3,0,0.5c0,0.2-0.1,0.3-0.2,0.4c-0.1,0.1-0.2,0.2-0.4,0.3s-0.3,0.1-0.5,0.2c-0.2,0-0.3,0-0.5,0
			s-0.3-0.1-0.4-0.2c-0.1-0.1-0.2-0.2-0.3-0.4S789.2,593.4,789.2,593.2z"/>
	</g>
</g>
</svg>
