<svg xmlns="http://www.w3.org/2000/svg" width="38" height="38" viewBox="0 0 38 38"><defs><style>.a{fill:#88a2aa;}</style></defs><path class="a" d="M19,0A19,19,0,1,0,38,19,19.007,19.007,0,0,0,19,0ZM30.723,12.578a10.812,10.812,0,0,1-1.14,1.273c-.912.912-.95,1.007-.95,1.748a17.006,17.006,0,0,1-1.1,4.921,14.227,14.227,0,0,1-5.415,6.365A13.718,13.718,0,0,1,11.457,28.1a12.012,12.012,0,0,1-3.135-1.444,4.586,4.586,0,0,1,1.33-.133A9.132,9.132,0,0,0,14,25.308l.874-.532-1.007-.342a4.944,4.944,0,0,1-3.04-2.7c-.095-.342-.057-.361.836-.361l.95-.019-.8-.38a5.1,5.1,0,0,1-2.223-2.109,6.012,6.012,0,0,1-.589-2.2c.038-.057.38.057.76.19,1.121.418,1.273.3.608-.38a4.744,4.744,0,0,1-1.007-4.864l.266-.8L10.7,11.875a13.213,13.213,0,0,0,7.733,3.819l.817.1-.057-.8a4.7,4.7,0,0,1,3.173-4.731,5.355,5.355,0,0,1,2.85-.057,7,7,0,0,1,1.387.722l.8.551.874-.285A10.243,10.243,0,0,0,29.7,10.64c.285-.152.513-.228.513-.19a4.731,4.731,0,0,1-1.1,1.748c-.684.741-.494.8.893.3C30.875,12.274,30.894,12.274,30.723,12.578Z"/></svg>