<svg xmlns="http://www.w3.org/2000/svg" width="38" height="38" viewBox="0 0 38 38"><defs><style>.a{fill:#88a2aa;}</style></defs><path class="a" d="M19,0A19,19,0,1,0,38,19,19.007,19.007,0,0,0,19,0ZM14.668,26.942h-3.99V14.934h3.99ZM12.673,13.3h-.019a2.077,2.077,0,1,1,.057-4.142,2.079,2.079,0,1,1-.038,4.142Zm16.4,13.642H25.08V20.52c0-1.615-.57-2.717-2.014-2.717a2.184,2.184,0,0,0-2.052,1.463,2.493,2.493,0,0,0-.133.969v6.707h-3.99s.057-10.887,0-12.008h3.99v1.71a3.964,3.964,0,0,1,3.591-1.976c2.622,0,4.6,1.71,4.6,5.415Z"/></svg>